<?xml version="1.0" standalone="no"?>
<!DOCTYPE svg PUBLIC "-//W3C//DTD SVG 20010904//EN"
 "http://www.w3.org/TR/2001/REC-SVG-20010904/DTD/svg10.dtd">
<svg version="1.0" xmlns="http://www.w3.org/2000/svg"
 width="512.000000pt" height="512.000000pt" viewBox="0 0 512.000000 512.000000"
 preserveAspectRatio="xMidYMid meet">
<metadata>
Created by potrace 1.11, written by Peter Selinger 2001-2013
</metadata>
<g transform="translate(0.000000,512.000000) scale(0.100000,-0.100000)"
fill="#000000" stroke="none">
<path d="M2320 5110 c-502 -52 -982 -248 -1365 -557 -288 -232 -517 -518 -684
-854 -124 -249 -204 -502 -247 -784 -26 -169 -26 -541 0 -710 71 -465 260
-899 543 -1250 232 -288 518 -517 854 -684 249 -124 502 -204 784 -247 169
-26 541 -26 710 0 465 71 899 260 1250 543 288 232 517 518 684 854 124 249
204 502 247 784 26 169 26 541 0 710 -71 465 -260 899 -543 1250 -232 288
-518 517 -854 684 -246 123 -506 205 -779 246 -124 19 -478 28 -600 15z m521
-1179 c135 -27 229 -59 331 -113 249 -133 400 -361 415 -631 l6 -97 -283 2
-284 3 -12 67 c-40 215 -177 316 -454 334 -317 21 -523 -149 -460 -378 32
-114 128 -157 667 -293 354 -90 375 -96 478 -148 202 -100 341 -245 402 -418
22 -62 27 -96 31 -215 4 -119 1 -153 -17 -225 -60 -240 -205 -414 -441 -529
-170 -82 -338 -118 -585 -127 -399 -13 -729 88 -942 290 -164 156 -246 332
-260 560 l-6 97 284 0 285 0 10 -79 c28 -204 157 -340 379 -397 97 -25 333
-25 425 -1 197 53 300 157 300 301 0 86 -18 134 -70 186 -85 86 -198 131 -540
219 -471 121 -627 185 -771 318 -142 132 -209 290 -209 493 0 119 24 221 77
330 40 82 59 108 142 190 69 69 120 108 181 143 101 57 261 110 391 131 131
21 387 15 530 -13z"/>
</g>
</svg>
