<?xml version="1.0" standalone="no"?>
<!DOCTYPE svg PUBLIC "-//W3C//DTD SVG 20010904//EN"
 "http://www.w3.org/TR/2001/REC-SVG-20010904/DTD/svg10.dtd">
<svg version="1.0" xmlns="http://www.w3.org/2000/svg"
 width="512.000000pt" height="512.000000pt" viewBox="0 0 512.000000 512.000000"
 preserveAspectRatio="xMidYMid meet">
<metadata>
Created by potrace 1.11, written by Peter Selinger 2001-2013
</metadata>
<g transform="translate(0.000000,512.000000) scale(0.100000,-0.100000)"
fill="#000000" stroke="none">
<path d="M2318 4255 c-411 -56 -714 -239 -871 -525 -71 -128 -98 -244 -98
-421 0 -314 125 -541 384 -697 132 -80 216 -107 796 -257 322 -83 490 -134
565 -172 71 -36 159 -124 187 -186 21 -46 24 -68 24 -182 l0 -131 -38 -76
c-76 -154 -230 -249 -462 -284 -171 -26 -382 -12 -540 36 -179 56 -326 172
-395 314 -41 84 -70 178 -70 231 0 16 -3 47 -6 68 l-7 37 -284 0 -285 0 7 -87
c15 -187 51 -319 129 -470 126 -244 333 -415 622 -516 417 -145 971 -123 1340
52 226 108 364 236 469 434 53 100 81 196 96 334 42 395 -169 756 -531 909
-44 18 -283 87 -532 153 -527 140 -573 153 -653 193 -180 89 -252 203 -243
387 5 103 26 155 91 227 55 61 154 116 264 146 114 31 383 31 497 0 163 -45
288 -126 354 -229 39 -60 79 -179 88 -260 l7 -63 285 0 285 0 -6 103 c-19 336
-226 632 -556 798 -251 125 -600 176 -913 134z"/>
</g>
</svg>
